<?xml version="1.0" encoding="UTF-8"?>
<!-- Generator: Adobe Illustrator 24.3.0, SVG Export Plug-In . SVG Version: 6.00 Build 0)  -->
<svg xmlns="http://www.w3.org/2000/svg" xmlns:xlink="http://www.w3.org/1999/xlink" version="1.1" id="Capa_1" x="0px" y="0px" viewBox="0 0 512 512" style="enable-background:new 0 0 512 512;" xml:space="preserve" width="512" height="512">
<g>
	<path fill="currentColor" d="M26.034,199.593v221.288c0,50.332,40.786,91.119,91.119,91.119h277.695c50.332,0,91.119-40.786,91.119-91.119V199.593   H26.034z M367.078,297.654L244.719,419.146c-4.339,4.339-9.546,6.075-15.62,6.075c-6.075,0-11.281-2.603-15.62-6.075   l-69.424-68.556c-8.678-8.678-8.678-22.563,0-30.373c8.678-8.678,22.563-8.678,30.373,0l53.803,53.803l106.739-106.739l0.868,0.868   c8.678-7.81,21.695-7.81,30.373,0C374.888,275.092,375.756,288.976,367.078,297.654z M394.847,60.746h-8.678V21.695   C386.169,9.546,376.624,0,364.475,0S342.78,9.546,342.78,21.695v39.051H169.22V21.695C169.22,9.546,159.675,0,147.525,0   c-12.149,0-21.695,9.546-21.695,21.695v39.051h-8.678c-50.332,0-91.119,40.786-91.119,91.119v4.339h459.932v-4.339   C485.966,101.532,445.18,60.746,394.847,60.746z"/>
</g>















</svg>
