<svg id="Layer_1" enable-background="new 0 0 100 100" viewBox="0 0 100 100" xmlns="http://www.w3.org/2000/svg"><g clip-rule="evenodd" fill-rule="evenodd"><path d="m67.4257812 3.8950558c1.6002045.5000901 2.700325 2.00036 2.8006744 3.8008509v1.4003353s0 20.9037628-24.8044701 40.2072372c-10.1018181 7.8015709-18.8033848 20.6037102-21.1037998 32.5058556-.3001862 1.6001968-1.5002689 2.8006668-3.1004753 3.2004089-1.6002045.3001862-3.2004089-.3001938-4.1006546-1.7001419-7.1011944-10.5018921-15.1027184-30.0054016-1.700139-53.2095795 12.0021582-21.0037823 34.2053214-31.6056911 52.0093604-26.2047176z"/><path d="m32.5195007 96.1115646c-1.70014-.5000839-2.9006042-2.1002884-2.9006042-3.9007874v-1.2000427s0-20.9037628 24.8044662-40.2072372c10.0018005-7.8015709 18.7033691-20.4036732 21.1037979-32.2057991.3001862-1.6002045 1.6002045-2.9006042 3.3007584-3.3007603 1.7001419-.3001871 3.3007584.4001379 4.3009415 1.8004913 7.0012665 10.5018902 14.7026443 29.905386 1.500267 52.909523-12.1021729 20.8037491-34.3061752 31.5056763-52.109375 26.1046982z"/></g></svg>