<?xml version="1.0" encoding="UTF-8"?>
<svg id="Layer_1" xmlns="http://www.w3.org/2000/svg" version="1.1" viewBox="0 0 100 100">
  <!-- Generator: Adobe Illustrator 29.8.2, SVG Export Plug-In . SVG Version: 2.1.1 Build 3)  -->
  <defs>
    <style>
      .st0 {
        fill: #2d2d2d;
        fill-rule: evenodd;
      }
    </style>
  </defs>
  <path class="st0" d="M67.43,3.9c1.6.5,2.7,2,2.8,3.8v1.4s0,20.9-24.8,40.21c-10.1,7.8-18.8,20.6-21.1,32.51-.3,1.6-1.5,2.8-3.1,3.2-1.6.3-3.2-.3-4.1-1.7-7.1-10.5-15.1-30.01-1.7-53.21C27.42,9.1,49.62-1.51,67.43,3.9h0Z"/>
  <path class="st0" d="M32.52,96.11c-1.7-.5-2.9-2.1-2.9-3.9v-1.2s0-20.9,24.8-40.21c10-7.8,18.7-20.4,21.1-32.21.3-1.6,1.6-2.9,3.3-3.3,1.7-.3,3.3.4,4.3,1.8,7,10.5,14.7,29.91,1.5,52.91-12.1,20.8-34.31,31.51-52.11,26.1h0Z"/>
</svg>