<svg id="Layer" height="512" viewBox="0 0 24 24" width="512" xmlns="http://www.w3.org/2000/svg"><g id="newspaper"><path d="m19 5h-10a2.652 2.652 0 0 0 -3 3v10a2 2 0 0 1 -2 2h15a2.652 2.652 0 0 0 3-3v-9a2.652 2.652 0 0 0 -3-3zm-5 10.577a.816.816 0 0 1 -.923.923h-3.154a.816.816 0 0 1 -.923-.923v-2.154a.816.816 0 0 1 .923-.923h3.154a.816.816 0 0 1 .923.923zm5 1.173h-2a.75.75 0 0 1 0-1.5h2a.75.75 0 0 1 0 1.5zm0-3h-2a.75.75 0 0 1 0-1.5h2a.75.75 0 0 1 0 1.5zm0-4h-9.25a.75.75 0 0 1 0-1.5h9.25a.75.75 0 0 1 0 1.5zm-15.749 8.75a1.249 1.249 0 0 1 -1.251-1.251v-6.249a2.006 2.006 0 0 1 2-2h.5v8.249a1.25 1.25 0 0 1 -1.249 1.251z" fill="currentColor"/></g></svg>