<svg id="Capa_1" enable-background="new 0 0 512.002 512.002" height="512" viewBox="0 0 512.002 512.002" width="512" xmlns="http://www.w3.org/2000/svg"><g><path d="m510.397 312.557-90.05-178.768c-1.71-3.394-4.696-6.067-8.338-7.372l-111.017-40.407c1.499-43.15-53.407-63.852-80.495-29.298-.167-.061-110.986-40.395-110.869-40.352-7.101-2.576-15.092.566-18.51 7.354l-89.514 177.751c-1.169 2.323-1.67 5.047-1.597 7.224.259 57.706 47.279 104.572 105.044 104.572 57.782 0 104.813-46.894 105.045-104.623.068-2.242-.468-4.956-1.63-7.238l-73.294-143.819 75.797 27.588c.188 11.757 4.842 22.784 13.177 31.118 4.916 4.916 10.696 8.454 16.855 10.618v277.344h-2.662c-42.617 0-77.289 34.671-77.289 77.288 0 8.284 6.716 15 15 15h159.9c8.284 0 15-6.716 15-15 0-42.617-34.671-77.288-77.289-77.288h-2.662v-277.343c7.273-2.556 13.774-6.92 19.022-12.963l95.943 34.92-82.411 163.697c-1.173 2.33-1.667 5.05-1.596 7.226.261 57.69 47.269 104.544 105.019 104.544 57.752 0 104.76-46.856 105.019-104.548.083-2.468-.532-5.111-1.598-7.225zm-405.802-248.905 66.026 129.559h-131.272zm.456 219.609c-36.248 0-66.576-25.829-73.544-60.05h147.088c-6.968 34.221-37.296 60.05-73.544 60.05zm168.611 150.988c20.834 0 38.565 13.543 44.851 32.288h-125.024c6.286-18.745 24.017-32.288 44.851-32.288zm-28.303-339.175c-5.868-5.868-5.868-15.416 0-21.284 9.421-9.421 25.692-2.729 25.692 10.642 0 13.376-16.275 20.059-25.692 10.642zm161.596 78.813 65.694 130.418h-131.353zm.021 220.444c-36.233 0-66.55-25.819-73.519-60.025h147.037c-6.968 34.205-37.285 60.025-73.518 60.025z"/></g></svg>