<?xml version="1.0" encoding="UTF-8"?>
<svg id="Layer_1" xmlns="http://www.w3.org/2000/svg" version="1.1" viewBox="0 0 1024 1024">
  <!-- Generator: Adobe Illustrator 29.8.2, SVG Export Plug-In . SVG Version: 2.1.1 Build 3)  -->
  <defs>
    <style>
      .st0 {
        fill: #fff;
      }

      .st1 {
        fill: #1a4331;
      }

      .st2 {
        font-family: MyriadPro-Regular, 'Myriad Pro';
        font-size: 12px;
      }
    </style>
  </defs>
  <path class="st0" d="M1382.44,429.27v8.85c0,2.94-2.4,5.34-5.36,5.34h-110.25c-2.95,0-5.36-2.4-5.36-5.34v-8.85c0-2.94,2.4-5.34,5.36-5.34h110.25c2.95,0,5.36,2.4,5.36,5.34Z"/>
  <path class="st0" d="M1365.96,420.69h-88.02l4.97-8.08c1.64-2.68,4.59-4.33,7.73-4.33h62.63c3.13,0,6.1,1.66,7.74,4.33l4.95,8.08Z"/>
  <polygon class="st0" points="1282.99 555.59 1282.99 555.59 1282.99 555.59 1282.99 555.59"/>
  <path class="st0" d="M1270.18,446.71c10.42,88.49,12.48,106.01,12.82,108.87h0s0,.05.01.12v.08h0v.1h0s.01.08.01.11h0v.07h0c.54,4.58,4.42,8.04,9.01,8.04h59.77c4.61,0,8.49-3.46,9.03-8.04h0v-.07h0s0-.07,0-.12h0v-.09h0v-.08c0-.07,0-.1,0-.12h0c.34-2.86,2.4-20.38,12.82-108.87h-103.49ZM1313.11,521.47h-20.86c-2.38,0-4.3-1.93-4.3-4.3s1.93-4.3,4.3-4.3h20.86c2.38,0,4.3,1.93,4.3,4.3s-1.93,4.3-4.3,4.3ZM1355.35,498.52h-63.1c-2.38,0-4.3-1.93-4.3-4.3s1.93-4.3,4.3-4.3h63.1c2.38,0,4.3,1.93,4.3,4.3s-1.93,4.3-4.3,4.3ZM1355.35,475.58h-63.1c-2.38,0-4.3-1.93-4.3-4.3s1.93-4.3,4.3-4.3h63.1c2.38,0,4.3,1.93,4.3,4.3s-1.93,4.3-4.3,4.3Z"/>
  <polygon class="st0" points="1360.92 555.59 1360.92 555.59 1360.92 555.59 1360.92 555.59"/>
  <path class="st0" d="M1360.86,556.06v-.06.06Z"/>
  <path class="st0" d="M1283.05,556.06v-.06.06Z"/>
  <path class="st0" d="M1283.02,555.84v.05-.04h0Z"/>
  <path class="st0" d="M1360.89,555.84h0v.04-.05h0Z"/>
  <path class="st0" d="M1439.9,544.83v-117.32c0-8.24-8.24-5.71-8.24-13.53,0-3.8,1.06-5.71,5.28-5.71h52c36.57,0,55.17,15.85,55.17,42.7,0,21.14-11.42,34.67-32.77,39.95,23.04,4.86,32.77,19.03,32.77,38.47v15.43c0,8.46,8.24,5.71,8.24,13.53,0,3.8-1.06,5.92-5.28,5.92h-43.55c-3.59,0-5.29-1.69-5.29-5.29,0-9.09,8.24-5.5,8.24-14.16v-16.91c0-19.87-9.51-29.81-28.96-30.23v47.14c0,8.46,8.24,5.71,8.24,13.53,0,3.8-1.06,5.92-5.28,5.92h-43.55c-3.59,0-5.28-1.69-5.28-5.29,0-9.09,8.24-5.5,8.24-14.16h.02ZM1477.53,483.1c19.45-.42,28.96-10.36,28.96-30.23s-9.51-29.81-28.96-30.23v60.46Z"/>
  <path class="st0" d="M1612.4,458.16c34.03,0,55.6,21.35,55.6,54.54s-21.35,53.69-55.6,53.69-56.65-21.77-56.65-53.91,22.62-54.33,56.65-54.33h0ZM1628.47,511.22c0-24.31-5.5-38.47-16.49-38.47s-16.91,15.64-16.91,39.53c0,21.98,4.65,39.53,16.49,39.53s16.91-16.7,16.91-40.59Z"/>
  <path class="st0" d="M1674.77,537.64c0-9.51,6.76-16.28,15.22-16.28,18.6,0,14.8,30.44,33.61,30.44,6.34,0,10.57-3.38,10.57-7.61,0-14.59-55.17-17.97-55.17-53.06,0-20.51,18.81-32.98,43.97-32.98s42.07,13.53,42.07,28.54c0,9.72-6.55,16.49-15.22,16.49-18.39,0-14.59-30.44-29.6-30.44-5.5,0-8.24,3.81-8.24,8.03,0,18.39,55.17,21.77,55.17,53.91,0,19.45-19.45,31.71-46.51,31.71s-45.87-12.9-45.87-28.75h0Z"/>
  <path class="st0" d="M1819.78,426.87c3.59,0,5.29,1.69,5.29,5.28v28.12h21.99c4.86,0,7.4,2.33,7.4,7.19s-2.54,7.4-7.4,7.4h-21.99v25.58c0,24.31,1.27,38.26,10.57,38.26,10.36,0,16.91-17.97,21.99-17.97.85,0,1.48.85,1.48,2.11,0,1.48-.85,6.34-1.9,9.51-5.71,18.6-23.04,34.04-41.01,34.04s-28.54-15.01-28.54-46.72v-44.82h-10.57c-4.65,0-7.19-2.54-7.19-7.4s2.54-7.19,7.19-7.19h10.57c13.53,0,24.31-14.8,26.64-28.12.63-3.59,2.33-5.28,5.5-5.28h-.02Z"/>
  <path class="st0" d="M1910.26,472.11c7.82-9.51,18.81-13.95,28.54-13.95,14.8,0,24.94,10.78,24.94,26,0,12.26-6.76,19.03-16.49,19.03-17.33,0-13.53-21.35-26.21-21.35-6.13,0-10.78,4.65-10.78,22.62v40.38c0,8.46,8.24,5.71,8.24,13.53,0,3.8-1.06,5.92-5.29,5.92h-43.55c-3.59,0-5.29-1.69-5.29-5.29,0-9.09,8.24-5.5,8.24-14.16v-65.32c0-8.24-8.24-5.5-8.24-13.53,0-3.59,1.06-5.71,5.29-5.71h31.71c5.92,0,8.88,2.75,8.88,8.67v3.17h.01Z"/>
  <path class="st0" d="M2064.37,491.98c0,29.17-32.55,38.05-52.43,37.84,4.23,5.71,10.36,8.88,18.39,8.88,19.45,0,29.59-17.97,35.51-17.97.84,0,1.27.42,1.27,1.69,0,1.9-1.06,6.76-2.11,9.72-5.71,18.81-24.95,34.25-48.41,34.25-27.27,0-48.2-21.35-48.2-52.85s21.77-55.39,54.75-55.39c25.16,0,41.22,13.53,41.22,33.82h0ZM2006.24,516.93c20.72-9.09,24.95-21.14,24.95-29.6s-4.02-13.74-11.42-13.74c-9.72,0-15.22,9.94-15.22,28.12,0,5.5.63,10.78,1.69,15.22h0Z"/>
  <path class="st0" d="M2118.28,426.87c3.59,0,5.29,1.69,5.29,5.28v28.12h21.99c4.86,0,7.4,2.33,7.4,7.19s-2.54,7.4-7.4,7.4h-21.99v25.58c0,24.31,1.27,38.26,10.57,38.26,10.36,0,16.91-17.97,21.99-17.97.85,0,1.48.85,1.48,2.11,0,1.48-.85,6.34-1.9,9.51-5.71,18.6-23.04,34.04-41.01,34.04s-28.54-15.01-28.54-46.72v-44.82h-10.57c-4.65,0-7.19-2.54-7.19-7.4s2.54-7.19,7.19-7.19h10.57c13.53,0,24.31-14.8,26.64-28.12.63-3.59,2.33-5.28,5.5-5.28h-.02Z"/>
  <path class="st0" d="M2209.39,426.87c3.59,0,5.29,1.69,5.29,5.28v28.12h21.99c4.86,0,7.4,2.33,7.4,7.19s-2.54,7.4-7.4,7.4h-21.99v25.58c0,24.31,1.27,38.26,10.57,38.26,10.36,0,16.91-17.97,21.99-17.97.85,0,1.48.85,1.48,2.11,0,1.48-.85,6.34-1.9,9.51-5.71,18.6-23.04,34.04-41.01,34.04s-28.54-15.01-28.54-46.72v-44.82h-10.57c-4.65,0-7.19-2.54-7.19-7.4s2.54-7.19,7.19-7.19h10.57c13.53,0,24.31-14.8,26.64-28.12.63-3.59,2.33-5.28,5.5-5.28h-.02Z"/>
  <path class="st0" d="M2310.87,458.16c34.04,0,55.6,21.35,55.6,54.54s-21.35,53.69-55.6,53.69-56.65-21.77-56.65-53.91,22.62-54.33,56.65-54.33h0ZM2326.93,511.22c0-24.31-5.5-38.47-16.49-38.47s-16.91,15.64-16.91,39.53c0,21.98,4.65,39.53,16.49,39.53s16.91-16.7,16.91-40.59Z"/>
  <text class="st2" transform="translate(1404.74 830.13)"><tspan x="0" y="0">1a4331</tspan></text>
  <rect class="st1" width="1024" height="1024" rx="86" ry="86"/>
  <polygon class="st0" points="311.39 859.71 311.39 859.71 311.39 859.71 311.39 859.71"/>
  <g>
    <path class="st0" d="M806.79,234.59v43.13c0,14.33-11.7,26.03-26.12,26.03H243.33c-14.38,0-26.12-11.7-26.12-26.03v-43.13c0-14.33,11.7-26.03,26.12-26.03h537.33c14.38,0,26.12,11.7,26.12,26.03Z"/>
    <path class="st0" d="M726.49,192.77h-428.99l24.22-39.38c7.99-13.06,22.37-21.1,37.67-21.1h305.24c15.25,0,29.73,8.09,37.72,21.1l24.13,39.38Z"/>
    <path class="st0" d="M259.81,319.58c50.78,431.28,60.82,516.67,62.48,530.61h0s0,.24.05.58v.39h0v.49-.05c0,.24.05.44.05.58h0v.34h0c2.63,22.32,21.54,39.19,43.91,39.19h291.3c22.47,0,41.38-16.86,44.01-39.19h0v-.34h0c0-.15,0-.34.05-.58v.05-.49h0v-.39c0-.34.05-.49.05-.58h0c1.66-13.94,11.7-99.33,62.48-530.61h-504.39ZM469.04,683.95h-101.67c-11.6,0-20.96-9.41-20.96-20.96s9.41-20.96,20.96-20.96h101.67c11.6,0,20.96,9.41,20.96,20.96s-9.41,20.96-20.96,20.96ZM674.91,572.09h-307.53c-11.6,0-20.96-9.41-20.96-20.96s9.41-20.96,20.96-20.96h307.53c11.6,0,20.96,9.41,20.96,20.96s-9.41,20.96-20.96,20.96ZM674.91,460.29h-307.53c-11.6,0-20.96-9.41-20.96-20.96s9.41-20.96,20.96-20.96h307.53c11.6,0,20.96,9.41,20.96,20.96s-9.41,20.96-20.96,20.96Z"/>
  </g>
  <polygon class="st0" points="691.2 859.71 691.2 859.71 691.2 859.71 691.2 859.71"/>
  <path class="st0" d="M690.91,862v-.29.29Z"/>
  <path class="st0" d="M311.68,862v-.29.29Z"/>
  <path class="st0" d="M311.53,860.93v.24-.19h0v-.05Z"/>
  <path class="st0" d="M691.05,860.93h0v.19-.24.05Z"/>
</svg>