<?xml version="1.0" encoding="UTF-8"?>
<svg id="Layer_1" xmlns="http://www.w3.org/2000/svg" version="1.1" viewBox="0 0 512 512">
  <!-- Generator: Adobe Illustrator 29.8.2, SVG Export Plug-In . SVG Version: 2.1.1 Build 3)  -->
  <defs>
    <style>
      .st0 {
        fill: #2d2d2d;
      }
    </style>
  </defs>
  <path class="st0" d="M187.63,0H43.71C19.61,0,0,19.61,0,43.71v143.92c0,24.1,19.61,43.71,43.71,43.71h143.92c24.1,0,43.71-19.61,43.71-43.71V43.71c0-24.1-19.61-43.71-43.71-43.71Z"/>
  <path class="st0" d="M468.29,0h-143.92c-24.1,0-43.71,19.61-43.71,43.71v143.92c0,24.1,19.61,43.71,43.71,43.71h143.92c24.1,0,43.71-19.61,43.71-43.71V43.71c0-24.1-19.61-43.71-43.71-43.71Z"/>
  <path class="st0" d="M187.63,280.67H43.71c-24.1,0-43.71,19.61-43.71,43.71v143.92c0,24.1,19.61,43.71,43.71,43.71h143.92c24.1,0,43.71-19.61,43.71-43.71v-143.92c0-24.1-19.61-43.71-43.71-43.71Z"/>
  <path class="st0" d="M468.29,280.67h-143.92c-24.1,0-43.71,19.61-43.71,43.71v143.92c0,24.1,19.61,43.71,43.71,43.71h143.92c24.1,0,43.71-19.61,43.71-43.71v-143.92c0-24.1-19.61-43.71-43.71-43.71Z"/>
</svg>