<?xml version="1.0" encoding="UTF-8"?>
<svg id="Layer_1" xmlns="http://www.w3.org/2000/svg" version="1.1" viewBox="0 0 1200 250">
  <!-- Generator: Adobe Illustrator 29.8.2, SVG Export Plug-In . SVG Version: 2.1.1 Build 3)  -->
  <defs>
    <style>
      .st0 {
        fill: #fff;
        stroke: #fff;
        stroke-miterlimit: 10;
      }

      .st1, .st2 {
        fill: #00b392;
      }

      .st3 {
        fill: #1a4331;
      }

      .st2 {
        font-family: BristleRadiantDEMOVERSION, 'Bristle Radiant DEMO VERSION';
        font-size: 211.4px;
      }
    </style>
  </defs>
  <g>
    <path class="st1" d="M298.27-248.76c0-20.46,13.23-40.68,33.19-40.68,2,0,3.74,1.25,3.74,3,0,10.98,9.23,18.47,20.96,18.47,13.73,0,29.45-10.23,44.17-42.67,4.24-11.23,8.98-23.96,13.23-34.69,3.24-8.73,8.73-11.98,16.22-11.98,10.48,0,13.48,5.24,10.98,13.48-4.24,12.23-6.74,20.46-7.49,26.45-.5,5.99,3.49,6.74,9.48,6.74,15.47,0,29.45-13.48,29.45-31.19,0-20.21-18.72-27.7-44.17-27.7-32.94,0-50.66,16.72-50.66,32.69,0,6.74,3.99,11.73,9.48,11.73,4.49,10.98-8.49,32.44-32.69,32.44-20.46,0-31.19-16.47-31.19-34.69,0-35.44,41.93-75.62,109.56-75.62,54.65,0,80.36,20.21,80.36,53.9,0,27.7-14.97,48.66-39.68,52.66-6.99,1-8.73,2.25-8.73,3.99,0,3.24,4.74,2.25,9.98,11.73,3.74,6.74,7.99,11.73,17.72,11.73,11.23,0,17.47-6.74,24.21-16.72,3.99-5.99,13.23,1.25,11.23,6.24-12.73,30.2-37.18,62.14-63.39,62.14-13.98,0-24.96-9.23-26.7-31.94-1.25-14.22-.25-37.93-12.48-37.93-3.74,0-5.24,2-6.49,5.74-15.72,42.42-44.17,74.62-79.86,74.62-28.95,0-40.43-21.21-40.43-41.93Z"/>
    <path class="st1" d="M646.4-279.46c-7.24,15.22-19.47,34.19-43.67,34.19h-3c-12.48,16.97-30.2,27.95-48.91,27.95-22.46,0-38.68-15.97-38.68-41.93,0-37.43,28.95-82.85,68.63-82.85,20.46,0,36.44,11.48,36.44,42.92,0,8.73-1.25,17.47-3.74,25.7h1.75c7.24,0,13.98-3.49,19.96-12.23,2.99-4.24,13.98.5,11.23,6.24ZM586.26-292.44c0-7.24-3.99-13.23-13.73-13.23-12.23,0-20.46,12.23-20.46,23.21,0,7.24,3.49,13.48,12.98,13.48,12.48,0,21.21-12.98,21.21-23.46Z"/>
    <path class="st1" d="M743.23-279.46c-6.99,14.47-27.45,61.89-73.87,61.89-43.92,0-49.16-43.17-34.19-68.13l1-1.5c17.72-23.96,35.44-61.14,56.9-61.14,15.47,0,22.96,8.98,22.71,16.97.25,7.99-17.97,8.73-17.97,18.72,0,4.74,13.23,24.71,16.47,40.18,7.49-.25,12.73-5.74,17.72-13.23,3.99-5.99,13.48,1.5,11.23,6.24ZM677.59-287.19c0-5.99-2-12.23-5.49-18.97-1.75-3.24-3.74-3.24-5.99,0-6.24,9.23-13.98,19.47-19.72,26.7,0,5.99,5.74,10.48,13.98,10.48,10.98,0,17.22-7.99,17.22-18.22Z"/>
    <path class="st1" d="M729.5-278.21c4.24-12.48,9.73-27.2,15.97-44.42-14.47,0-14.72-19.22-8.98-19.22,14.47,0,22.46-9.98,25.95-18.97,5.99-14.47,11.48-16.72,17.72-16.72,9.23,0,12.48,7.74,4.74,23.46-3.74,7.99-4.49,12.23.25,12.23h12.98c6.74,0,3.74,22.96-6.24,22.96-23.21,0-24.71.5-29.45,17.22-5.24,17.47,2.5,28.45,17.22,28.45,9.98,0,17.97-4.74,22.96-12.48,3.99-5.74,13.73,1.5,11.23,6.24-7.49,14.22-26.7,62.14-62.64,62.14-27.95,0-32.94-28.95-21.71-60.89Z"/>
    <path class="st1" d="M912.42-279.46c-7.99,13.73-24.96,62.14-58.65,62.14-20.46,0-27.45-13.48-27.45-26.2,0-23.21,17.47-46.67,17.47-58.65,0-2.5-3.24-8.73-13.23-12.48-4.49,9.98-12.73,26.95-16.72,35.19-3.24,6.49-14.47-1.5-11.23-6.24,4.74-6.74,10.98-21.21,15.22-32.69-4.99-1.75-8.24-4.99-8.24-13.98,0-10.23,8.73-22.46,22.21-22.46,23.46,0,47.42,15.97,47.42,29.45,0,14.22-10.73,24.71-10.73,40.18,0,6.99,4.24,12.23,15.47,12.23,7.49,0,12.23-5.24,17.22-12.73,3.99-5.99,13.97,1.5,11.23,6.24Z"/>
    <path class="st1" d="M964.58-342.1c23.21,0,33.44,14.97,33.44,31.44,0,18.22-15.72,38.68-40.18,38.68-6.99,0-13.73-.75-19.47-3.99-1.75-1-4.24-.25-4.24,3,0,8.73,11.73,13.23,25.95,13.23,16.97,0,37.18-8.73,48.41-25.95,3.99-5.99,13.97,1.5,11.23,6.24-21.96,40.68-48.41,62.14-77.36,62.14-70.13,0-49.41-124.78,22.21-124.78ZM966.82-304.66c0-5.49-3.74-10.23-11.48-10.23-9.73,0-15.72,7.24-15.72,13.98,0,5.49,3.74,10.23,11.73,10.23,9.73,0,15.47-7.74,15.47-13.97Z"/>
    <path class="st1" d="M1006.25-278.21c4.24-12.48,9.73-27.2,15.97-44.42-14.47,0-14.72-19.22-8.98-19.22,14.47,0,22.46-9.98,25.95-18.97,5.99-14.47,11.48-16.72,17.72-16.72,9.23,0,12.48,7.74,4.74,23.46-3.74,7.99-4.49,12.23.25,12.23h12.98c6.74,0,3.74,22.96-6.24,22.96-23.21,0-24.71.5-29.45,17.22-5.24,17.47,2.5,28.45,17.22,28.45,9.98,0,17.97-4.74,22.96-12.48,3.99-5.74,13.73,1.5,11.23,6.24-7.49,14.22-26.7,62.14-62.64,62.14-27.95,0-32.94-28.95-21.71-60.89Z"/>
    <path class="st1" d="M1077.12-278.21c4.24-12.48,9.73-27.2,15.97-44.42-14.47,0-14.72-19.22-8.98-19.22,14.47,0,22.46-9.98,25.95-18.97,5.99-14.47,11.48-16.72,17.72-16.72,9.23,0,12.48,7.74,4.74,23.46-3.74,7.99-4.49,12.23.25,12.23h12.98c6.74,0,3.74,22.96-6.24,22.96-23.21,0-24.71.5-29.45,17.22-5.24,17.47,2.5,28.45,17.22,28.45,9.98,0,17.97-4.74,22.96-12.48,3.99-5.74,13.73,1.5,11.23,6.24-7.49,14.22-26.7,62.14-62.64,62.14-27.95,0-32.94-28.95-21.71-60.89Z"/>
    <path class="st1" d="M1280.26-279.46c-7.24,15.22-19.46,34.19-43.67,34.19h-3c-12.48,16.97-30.2,27.95-48.91,27.95-22.46,0-38.68-15.97-38.68-41.93,0-37.43,28.95-82.85,68.63-82.85,20.46,0,36.44,11.48,36.44,42.92,0,8.73-1.25,17.47-3.74,25.7h1.75c7.24,0,13.98-3.49,19.96-12.23,2.99-4.24,13.98.5,11.23,6.24ZM1220.12-292.44c0-7.24-3.99-13.23-13.73-13.23-12.23,0-20.46,12.23-20.46,23.21,0,7.24,3.49,13.48,12.98,13.48,12.48,0,21.21-12.98,21.21-23.46Z"/>
  </g>
  <g>
    <path class="st1" d="M1780.01,188.64c0-20.46,13.23-40.68,33.19-40.68,2,0,3.74,1.25,3.74,3,0,10.98,9.23,18.47,20.96,18.47,13.73,0,29.45-10.23,44.17-42.67,4.24-11.23,8.98-23.96,13.23-34.69,3.24-8.73,8.73-11.98,16.22-11.98,10.48,0,13.48,5.24,10.98,13.48-4.24,12.23-6.74,20.46-7.49,26.45-.5,5.99,3.49,6.74,9.48,6.74,15.47,0,29.45-13.48,29.45-31.19,0-20.21-18.72-27.7-44.17-27.7-32.94,0-50.66,16.72-50.66,32.69,0,6.74,3.99,11.73,9.48,11.73,4.49,10.98-8.49,32.44-32.69,32.44-20.46,0-31.19-16.47-31.19-34.69,0-35.44,41.93-75.62,109.56-75.62,54.65,0,80.36,20.21,80.36,53.9,0,27.7-14.97,48.66-39.68,52.66-6.99,1-8.73,2.25-8.73,3.99,0,3.24,4.74,2.25,9.98,11.73,3.74,6.74,7.99,11.73,17.72,11.73,11.23,0,17.47-6.74,24.21-16.72,3.99-5.99,13.23,1.25,11.23,6.24-12.73,30.2-37.18,62.14-63.39,62.14-13.98,0-24.96-9.23-26.7-31.94-1.25-14.22-.25-37.93-12.48-37.93-3.74,0-5.24,2-6.49,5.74-15.72,42.42-44.17,74.62-79.86,74.62-28.95,0-40.43-21.21-40.43-41.93Z"/>
    <path class="st1" d="M2128.14,157.94c-7.24,15.22-19.47,34.19-43.67,34.19h-3c-12.48,16.97-30.2,27.95-48.91,27.95-22.46,0-38.68-15.97-38.68-41.93,0-37.43,28.95-82.85,68.63-82.85,20.46,0,36.44,11.48,36.44,42.92,0,8.73-1.25,17.47-3.74,25.7h1.75c7.24,0,13.98-3.49,19.96-12.23,2.99-4.24,13.98.5,11.23,6.24ZM2068,144.96c0-7.24-3.99-13.23-13.73-13.23-12.23,0-20.46,12.23-20.46,23.21,0,7.24,3.49,13.48,12.98,13.48,12.48,0,21.21-12.98,21.21-23.46Z"/>
    <path class="st1" d="M2224.97,157.94c-6.99,14.47-27.45,61.89-73.87,61.89-43.92,0-49.16-43.17-34.19-68.13l1-1.5c17.72-23.96,35.44-61.14,56.9-61.14,15.47,0,22.96,8.98,22.71,16.97.25,7.99-17.97,8.73-17.97,18.72,0,4.74,13.23,24.71,16.47,40.18,7.49-.25,12.73-5.74,17.72-13.23,3.99-5.99,13.48,1.5,11.23,6.24ZM2159.33,150.21c0-5.99-2-12.23-5.49-18.97-1.75-3.24-3.74-3.24-5.99,0-6.24,9.23-13.98,19.47-19.72,26.7,0,5.99,5.74,10.48,13.98,10.48,10.98,0,17.22-7.99,17.22-18.22Z"/>
    <path class="st1" d="M2211.24,159.19c4.24-12.48,9.73-27.2,15.97-44.42-14.47,0-14.72-19.22-8.98-19.22,14.47,0,22.46-9.98,25.95-18.97,5.99-14.47,11.48-16.72,17.72-16.72,9.23,0,12.48,7.74,4.74,23.46-3.74,7.99-4.49,12.23.25,12.23h12.98c6.74,0,3.74,22.96-6.24,22.96-23.21,0-24.71.5-29.45,17.22-5.24,17.47,2.5,28.45,17.22,28.45,9.98,0,17.97-4.74,22.96-12.48,3.99-5.74,13.73,1.5,11.23,6.24-7.49,14.22-26.7,62.14-62.64,62.14-27.95,0-32.94-28.95-21.71-60.89Z"/>
    <path class="st1" d="M2394.16,157.94c-7.99,13.73-24.96,62.14-58.65,62.14-20.46,0-27.45-13.48-27.45-26.2,0-23.21,17.47-46.67,17.47-58.65,0-2.5-3.24-8.73-13.23-12.48-4.49,9.98-12.73,26.95-16.72,35.19-3.24,6.49-14.47-1.5-11.23-6.24,4.74-6.74,10.98-21.21,15.22-32.69-4.99-1.75-8.24-4.99-8.24-13.98,0-10.23,8.73-22.46,22.21-22.46,23.46,0,47.42,15.97,47.42,29.45,0,14.22-10.73,24.71-10.73,40.18,0,6.99,4.24,12.23,15.47,12.23,7.49,0,12.23-5.24,17.22-12.73,3.99-5.99,13.97,1.5,11.23,6.24Z"/>
    <path class="st1" d="M2446.32,95.3c23.21,0,33.44,14.97,33.44,31.44,0,18.22-15.72,38.68-40.18,38.68-6.99,0-13.73-.75-19.47-3.99-1.75-1-4.24-.25-4.24,3,0,8.73,11.73,13.23,25.95,13.23,16.97,0,37.18-8.73,48.41-25.95,3.99-5.99,13.97,1.5,11.23,6.24-21.96,40.68-48.41,62.14-77.36,62.14-70.13,0-49.41-124.78,22.21-124.78ZM2448.56,132.74c0-5.49-3.74-10.23-11.48-10.23-9.73,0-15.72,7.24-15.72,13.98,0,5.49,3.74,10.23,11.73,10.23,9.73,0,15.47-7.74,15.47-13.97Z"/>
    <path class="st1" d="M2487.99,159.19c4.24-12.48,9.73-27.2,15.97-44.42-14.47,0-14.72-19.22-8.98-19.22,14.47,0,22.46-9.98,25.95-18.97,5.99-14.47,11.48-16.72,17.72-16.72,9.23,0,12.48,7.74,4.74,23.46-3.74,7.99-4.49,12.23.25,12.23h12.98c6.74,0,3.74,22.96-6.24,22.96-23.21,0-24.71.5-29.45,17.22-5.24,17.47,2.5,28.45,17.22,28.45,9.98,0,17.97-4.74,22.96-12.48,3.99-5.74,13.73,1.5,11.23,6.24-7.49,14.22-26.7,62.14-62.64,62.14-27.95,0-32.94-28.95-21.71-60.89Z"/>
    <path class="st1" d="M2558.86,159.19c4.24-12.48,9.73-27.2,15.97-44.42-14.47,0-14.72-19.22-8.98-19.22,14.47,0,22.46-9.98,25.95-18.97,5.99-14.47,11.48-16.72,17.72-16.72,9.23,0,12.48,7.74,4.74,23.46-3.74,7.99-4.49,12.23.25,12.23h12.98c6.74,0,3.74,22.96-6.24,22.96-23.21,0-24.71.5-29.45,17.22-5.24,17.47,2.5,28.45,17.22,28.45,9.98,0,17.97-4.74,22.96-12.48,3.99-5.74,13.73,1.5,11.23,6.24-7.49,14.22-26.7,62.14-62.64,62.14-27.95,0-32.94-28.95-21.71-60.89Z"/>
    <path class="st1" d="M2762,157.94c-7.24,15.22-19.46,34.19-43.67,34.19h-3c-12.48,16.97-30.2,27.95-48.91,27.95-22.46,0-38.68-15.97-38.68-41.93,0-37.43,28.95-82.85,68.63-82.85,20.46,0,36.44,11.48,36.44,42.92,0,8.73-1.25,17.47-3.74,25.7h1.75c7.24,0,13.98-3.49,19.96-12.23,2.99-4.24,13.98.5,11.23,6.24ZM2701.86,144.96c0-7.24-3.99-13.23-13.73-13.23-12.23,0-20.46,12.23-20.46,23.21,0,7.24,3.49,13.48,12.98,13.48,12.48,0,21.21-12.98,21.21-23.46Z"/>
  </g>
  <g>
    <g>
      <path class="st3" d="M168.47,66.94v8.85c0,2.94-2.4,5.34-5.36,5.34H52.86c-2.95,0-5.36-2.4-5.36-5.34v-8.85c0-2.94,2.4-5.34,5.36-5.34h110.25c2.95,0,5.36,2.4,5.36,5.34Z"/>
      <path class="st3" d="M151.99,58.36H63.97l4.97-8.08c1.64-2.68,4.59-4.33,7.73-4.33h62.63c3.13,0,6.1,1.66,7.74,4.33l4.95,8.08Z"/>
      <g>
        <polygon class="st3" points="69.02 193.26 69.02 193.26 69.02 193.26 69.02 193.26"/>
        <path class="st3" d="M56.21,84.38c10.42,88.49,12.48,106.01,12.82,108.87,0,0,0,0,0,0,0,0,0,0,0,0,0,0,0,0,0,0,0,.01,0,.05.01.12,0,.02,0,.04,0,.05,0,.01,0,.02,0,.03,0,0,0,0,0,0,0,.02,0,.04,0,.05,0,.02,0,.03,0,.05,0,0,0,0,0-.01,0,.05.01.09.01.12,0,0,0,0,0,0,0,0,0,0,0,0,0,.02,0,.03,0,.04,0,0,0,.02,0,.03,0,0,0,0,0,0,0,0,0,0,0,0,0,0,0,0,0,0,0,0,0,0,0,0,0,0,0,0,0,0,.54,4.58,4.42,8.04,9.01,8.04h59.77c4.61,0,8.49-3.46,9.03-8.04,0,0,0,0,0,0,0,0,0,0,0,0,0,0,0,0,0,0,0,0,0,0,0,0,0,0,0,0,0,0,0,0,0-.02,0-.03,0-.01,0-.02,0-.04,0,0,0,0,0,0,0,0,0,0,0,0,0-.03,0-.07.01-.12,0,0,0,0,0,.01,0-.02,0-.03,0-.05,0-.02,0-.03,0-.05,0,0,0,0,0,0,0-.01,0-.02,0-.03,0-.02,0-.04,0-.05,0-.07.01-.1.01-.12,0,0,0,0,0,0,0,0,0,0,0,0,0,0,0,0,0,0,.34-2.86,2.4-20.38,12.82-108.87H56.21ZM99.14,159.14h-20.86c-2.38,0-4.3-1.93-4.3-4.3s1.93-4.3,4.3-4.3h20.86c2.38,0,4.3,1.93,4.3,4.3s-1.93,4.3-4.3,4.3ZM141.38,136.19h-63.1c-2.38,0-4.3-1.93-4.3-4.3s1.93-4.3,4.3-4.3h63.1c2.38,0,4.3,1.93,4.3,4.3s-1.93,4.3-4.3,4.3ZM141.38,113.25h-63.1c-2.38,0-4.3-1.93-4.3-4.3s1.93-4.3,4.3-4.3h63.1c2.38,0,4.3,1.93,4.3,4.3s-1.93,4.3-4.3,4.3Z"/>
        <polygon class="st3" points="146.95 193.26 146.95 193.26 146.95 193.26 146.95 193.26"/>
        <path class="st3" d="M146.89,193.73s0-.04,0-.06c0,.02,0,.03,0,.04,0,0,0,.02,0,.02Z"/>
        <path class="st3" d="M69.08,193.73s0-.01,0-.02c0-.01,0-.02,0-.04,0,.02,0,.04,0,.06Z"/>
        <path class="st3" d="M69.05,193.51s0,.03,0,.05c0-.01,0-.03,0-.04,0,0,0,0,0,0Z"/>
        <path class="st3" d="M146.92,193.51s0,0,0,0c0,.01,0,.03,0,.04,0-.02,0-.03,0-.05Z"/>
      </g>
    </g>
    <g>
      <path class="st3" d="M225.93,182.5v-117.32c0-8.24-8.24-5.71-8.24-13.53,0-3.8,1.06-5.71,5.28-5.71h52c36.57,0,55.17,15.85,55.17,42.7,0,21.14-11.42,34.67-32.77,39.95,23.04,4.86,32.77,19.03,32.77,38.47v15.43c0,8.46,8.24,5.71,8.24,13.53,0,3.8-1.06,5.92-5.28,5.92h-43.55c-3.59,0-5.29-1.69-5.29-5.29,0-9.09,8.24-5.5,8.24-14.16v-16.91c0-19.87-9.51-29.81-28.96-30.23v47.14c0,8.46,8.24,5.71,8.24,13.53,0,3.8-1.06,5.92-5.28,5.92h-43.55c-3.59,0-5.28-1.69-5.28-5.29,0-9.09,8.24-5.5,8.24-14.16ZM263.56,120.77c19.45-.42,28.96-10.36,28.96-30.23s-9.51-29.81-28.96-30.23v60.46Z"/>
      <path class="st3" d="M398.43,95.83c34.03,0,55.6,21.35,55.6,54.54s-21.35,53.69-55.6,53.69-56.65-21.77-56.65-53.91,22.62-54.33,56.65-54.33ZM414.5,148.89c0-24.31-5.5-38.47-16.49-38.47s-16.91,15.64-16.91,39.53c0,21.98,4.65,39.53,16.49,39.53s16.91-16.7,16.91-40.59Z"/>
      <path class="st3" d="M460.8,175.31c0-9.51,6.76-16.28,15.22-16.28,18.6,0,14.8,30.44,33.61,30.44,6.34,0,10.57-3.38,10.57-7.61,0-14.59-55.17-17.97-55.17-53.06,0-20.51,18.81-32.98,43.97-32.98s42.07,13.53,42.07,28.54c0,9.72-6.55,16.49-15.22,16.49-18.39,0-14.59-30.44-29.6-30.44-5.5,0-8.24,3.81-8.24,8.03,0,18.39,55.17,21.77,55.17,53.91,0,19.45-19.45,31.71-46.51,31.71s-45.87-12.9-45.87-28.75Z"/>
      <path class="st3" d="M605.81,64.54c3.59,0,5.29,1.69,5.29,5.28v28.12h21.99c4.86,0,7.4,2.33,7.4,7.19s-2.54,7.4-7.4,7.4h-21.99v25.58c0,24.31,1.27,38.26,10.57,38.26,10.36,0,16.91-17.97,21.99-17.97.85,0,1.48.85,1.48,2.11,0,1.48-.85,6.34-1.9,9.51-5.71,18.6-23.04,34.04-41.01,34.04s-28.54-15.01-28.54-46.72v-44.82h-10.57c-4.65,0-7.19-2.54-7.19-7.4s2.54-7.19,7.19-7.19h10.57c13.53,0,24.31-14.8,26.64-28.12.63-3.59,2.33-5.28,5.5-5.28Z"/>
      <path class="st3" d="M696.29,109.78c7.82-9.51,18.81-13.95,28.54-13.95,14.8,0,24.94,10.78,24.94,26,0,12.26-6.76,19.03-16.49,19.03-17.33,0-13.53-21.35-26.21-21.35-6.13,0-10.78,4.65-10.78,22.62v40.38c0,8.46,8.24,5.71,8.24,13.53,0,3.8-1.06,5.92-5.29,5.92h-43.55c-3.59,0-5.29-1.69-5.29-5.29,0-9.09,8.24-5.5,8.24-14.16v-65.32c0-8.24-8.24-5.5-8.24-13.53,0-3.59,1.06-5.71,5.29-5.71h31.71c5.92,0,8.88,2.75,8.88,8.67v3.17Z"/>
      <path class="st3" d="M850.4,129.65c0,29.17-32.55,38.05-52.43,37.84,4.23,5.71,10.36,8.88,18.39,8.88,19.45,0,29.59-17.97,35.51-17.97.84,0,1.27.42,1.27,1.69,0,1.9-1.06,6.76-2.11,9.72-5.71,18.81-24.95,34.25-48.41,34.25-27.27,0-48.2-21.35-48.2-52.85s21.77-55.39,54.75-55.39c25.16,0,41.22,13.53,41.22,33.82ZM792.27,154.6c20.72-9.09,24.95-21.14,24.95-29.6s-4.02-13.74-11.42-13.74c-9.72,0-15.22,9.94-15.22,28.12,0,5.5.63,10.78,1.69,15.22Z"/>
      <path class="st3" d="M904.31,64.54c3.59,0,5.29,1.69,5.29,5.28v28.12h21.99c4.86,0,7.4,2.33,7.4,7.19s-2.54,7.4-7.4,7.4h-21.99v25.58c0,24.31,1.27,38.26,10.57,38.26,10.36,0,16.91-17.97,21.99-17.97.85,0,1.48.85,1.48,2.11,0,1.48-.85,6.34-1.9,9.51-5.71,18.6-23.04,34.04-41.01,34.04s-28.54-15.01-28.54-46.72v-44.82h-10.57c-4.65,0-7.19-2.54-7.19-7.4s2.54-7.19,7.19-7.19h10.57c13.53,0,24.31-14.8,26.64-28.12.63-3.59,2.33-5.28,5.5-5.28Z"/>
      <path class="st3" d="M995.42,64.54c3.59,0,5.29,1.69,5.29,5.28v28.12h21.99c4.86,0,7.4,2.33,7.4,7.19s-2.54,7.4-7.4,7.4h-21.99v25.58c0,24.31,1.27,38.26,10.57,38.26,10.36,0,16.91-17.97,21.99-17.97.85,0,1.48.85,1.48,2.11,0,1.48-.85,6.34-1.9,9.51-5.71,18.6-23.04,34.04-41.01,34.04s-28.54-15.01-28.54-46.72v-44.82h-10.57c-4.65,0-7.19-2.54-7.19-7.4s2.54-7.19,7.19-7.19h10.57c13.53,0,24.31-14.8,26.64-28.12.63-3.59,2.33-5.28,5.5-5.28Z"/>
      <path class="st3" d="M1096.9,95.83c34.04,0,55.6,21.35,55.6,54.54s-21.35,53.69-55.6,53.69-56.65-21.77-56.65-53.91,22.62-54.33,56.65-54.33ZM1112.96,148.89c0-24.31-5.5-38.47-16.49-38.47s-16.91,15.64-16.91,39.53c0,21.98,4.65,39.53,16.49,39.53s16.91-16.7,16.91-40.59Z"/>
    </g>
  </g>
  <text class="st2" transform="translate(209.13 525.06)"><tspan x="0" y="0">Rostretto</tspan></text>
  <g id="_x37_5_Paper_Cup">
    <g>
      <path class="st1" d="M173.21,370.5v11.16c0,3.71-3.03,6.74-6.76,6.74H27.38c-3.73,0-6.76-3.03-6.76-6.74v-11.16c0-3.71,3.03-6.74,6.76-6.74h139.06c3.73,0,6.76,3.03,6.76,6.74Z"/>
      <path class="st1" d="M152.42,359.67H41.39l6.27-10.2c2.07-3.38,5.8-5.47,9.75-5.47h79c3.95,0,7.7,2.09,9.77,5.47l6.25,10.2Z"/>
      <path class="st1" d="M162.23,392.5c-19.98,169.74-15.59,132.47-16.24,137.96-.68,5.77-5.57,10.14-11.39,10.14H59.21c-5.8,0-10.69-4.36-11.37-10.14-.65-5.49,3.74,31.79-16.24-137.96h130.63Z"/>
    </g>
  </g>
  <path class="st0" d="M139.04,418.06H59.44c-3,0-5.43,2.43-5.43,5.43s2.43,5.43,5.43,5.43h79.6c3,0,5.43-2.43,5.43-5.43s-2.43-5.43-5.43-5.43Z"/>
  <path class="st0" d="M139.04,447H59.44c-3,0-5.43,2.43-5.43,5.43s2.43,5.43,5.43,5.43h79.6c3,0,5.43-2.43,5.43-5.43s-2.43-5.43-5.43-5.43Z"/>
  <path class="st0" d="M85.76,475.95h-26.31c-3,0-5.43,2.43-5.43,5.43s2.43,5.43,5.43,5.43h26.31c3,0,5.43-2.43,5.43-5.43s-2.43-5.43-5.43-5.43Z"/>
</svg>