<svg height="511pt" viewBox="0 1 511 511.99899" width="511pt" xmlns="http://www.w3.org/2000/svg"><path d="m145.164062 49.734375c-1.792968 2.035156-3.503906 4.148437-5.136718 6.324219.796875-.019532 1.582031-.03125 2.378906-.03125h169.828125c-2.488281-3.3125-5.175781-6.484375-8.035156-9.484375-2.925781-3.070313-6.035157-5.96875-9.300781-8.679688l-.726563.386719c-19.011719-16.09375-42.796875-24.84375-68.105469-24.84375-28.042968 0-54.851562 11.160156-74.613281 30.832031h-1.097656c-1.792969 1.773438-3.527344 3.601563-5.191407 5.496094zm0 0"/><path d="m84.550781 114.214844c-6.855469 8.617187-11.640625 18.566406-14.066406 29.21875-1.230469 5.378906-1.863281 10.933594-1.863281 16.59375 0 7.640625 1.160156 15.171875 3.453125 22.382812.171875.542969.351562 1.085938.542969 1.621094 3.9375 11.488281 10.746093 21.917969 19.757812 30.246094l4.863281 4.480468v293.242188h384.25v-291.820312l5.277344-4.523438c1.179687-1.007812 2.40625-2.144531 3.753906-3.484375 13.898438-13.902344 21.570313-32.441406 21.570313-52.144531 0-34.574219-24.5-64.921875-58.257813-72.152344-5.066406-1.085938-10.292969-1.640625-15.535156-1.640625h-295.890625c-6.457031 0-12.847656.835937-19.011719 2.476563-.050781.007812-.101562.03125-.148437.039062-12.445313 3.324219-23.863282 9.9375-33.027344 19.101562-2.023438 2.023438-3.917969 4.148438-5.667969 6.363282zm0 0"/><path d="m67.03125 231.675781c-6.988281-7.347656-12.859375-15.675781-17.410156-24.65625l-23.730469 23.730469v.371094l-25.390625 25.390625 66.53125 66.527343zm0 0"/><path d="m67.03125 365.761719-41.140625-41.140625v155.160156h41.140625zm0 0"/><path d="m326.070312 25.710938c8.617188 9.042968 15.988282 19.292968 21.867188 30.316406h74.199219l-56.027344-56.027344-42.890625 22.808594c.960938.953125 1.914062 1.917968 2.851562 2.902344zm0 0"/><path d="m39.421875 174.496094c-.664063-4.78125-1.007813-9.605469-1.007813-14.46875 0-27.789063 10.816407-53.90625 30.449219-73.542969 9-9 19.554688-16.25 31.0625-21.40625 3.21875-7.253906 7.085938-14.230469 11.5-20.839844h-17c-25.082031 0-48.664062 9.765625-66.398437 27.5s-27.5 41.316407-27.5 66.398438c0 20.421875 6.75 40.242187 18.859375 56.394531zm0 0"/></svg>