<?xml version="1.0" encoding="UTF-8"?>
<svg id="Layer_1" xmlns="http://www.w3.org/2000/svg" version="1.1" viewBox="0 0 511 511">
  <!-- Generator: Adobe Illustrator 29.8.2, SVG Export Plug-In . SVG Version: 2.1.1 Build 3)  -->
  <defs>
    <style>
      .st0 {
        fill: #2d2d2d;
      }
    </style>
  </defs>
  <path class="st0" d="M145.38,48.64c-1.79,2.03-3.5,4.14-5.13,6.31.8-.02,1.58-.03,2.37-.03h169.5c-2.48-3.31-5.17-6.47-8.02-9.47-2.92-3.06-6.02-5.96-9.28-8.66l-.73.39c-18.97-16.06-42.71-24.8-67.97-24.8-27.99,0-54.74,11.14-74.47,30.77h-1.1c-1.79,1.77-3.52,3.59-5.18,5.49Z"/>
  <path class="st0" d="M84.88,112.99c-6.84,8.6-11.62,18.53-14.04,29.16-1.23,5.37-1.86,10.91-1.86,16.56,0,7.63,1.16,15.14,3.45,22.34.17.54.35,1.08.54,1.62,3.93,11.47,10.73,21.88,19.72,30.19l4.85,4.47v292.67h383.5V218.75l5.27-4.51c1.18-1.01,2.4-2.14,3.75-3.48,13.87-13.88,21.53-32.38,21.53-52.04,0-34.51-24.45-64.8-58.14-72.01-5.06-1.08-10.27-1.64-15.5-1.64H142.63c-6.44,0-12.82.83-18.97,2.47-.05,0-.1.03-.15.04-12.42,3.32-23.82,9.92-32.96,19.06-2.02,2.02-3.91,4.14-5.66,6.35Z"/>
  <path class="st0" d="M67.4,230.23c-6.97-7.33-12.83-15.65-17.38-24.61l-23.68,23.68v.37L1,255.01l66.4,66.4v-91.19Z"/>
  <path class="st0" d="M67.4,364.05l-41.06-41.06v154.86h41.06v-113.8Z"/>
  <path class="st0" d="M325.93,24.66c8.6,9.03,15.96,19.26,21.82,30.26h74.05L365.89-1l-42.81,22.76c.96.95,1.91,1.91,2.85,2.9Z"/>
  <path class="st0" d="M39.84,173.16c-.66-4.77-1.01-9.59-1.01-14.44,0-27.73,10.8-53.8,30.39-73.4,8.98-8.98,19.52-16.22,31-21.36,3.21-7.24,7.07-14.2,11.48-20.8h-16.97c-25.03,0-48.57,9.75-66.27,27.45S1.02,111.84,1.02,136.87c0,20.38,6.74,40.16,18.82,56.28l20-20Z"/>
</svg>