<svg fill="none" height="512" viewBox="0 0 32 32" width="512" xmlns="http://www.w3.org/2000/svg"><g clip-rule="evenodd"><path d="m11 8c-3.03757 0-5.5 2.4624-5.5 5.5s2.46243 5.5 5.5 5.5c3.0376 0 5.5-2.4624 5.5-5.5s-2.4624-5.5-5.5-5.5zm-7.5 5.5c0-4.14214 3.35786-7.5 7.5-7.5 4.1421 0 7.5 3.35786 7.5 7.5 0 4.1421-3.3579 7.5-7.5 7.5-4.14214 0-7.5-3.3579-7.5-7.5z"/><path d="m21.1845 6.00001.0031-.00001c1.9891 0 3.8967.79018 5.3033 2.1967 1.4065 1.40653 2.1967 3.3142 2.1967 5.3033s-.7902 3.8968-2.1967 5.3033c-1.4066 1.4065-3.3142 2.1967-5.3033 2.1967-.5523 0-1-.4477-1-1s.4477-1 1-1c1.4586 0 2.8576-.5795 3.889-1.6109 1.0315-1.0315 1.611-2.4304 1.611-3.8891s-.5795-2.8576-1.611-3.88908c-1.0311-1.0311-2.4294-1.61051-3.8875-1.61092-.5075.00168-1.0125.06981-1.5023.20264-.533.14456-1.0823-.17035-1.2269-.70338-.1445-.53302.1704-1.08232.7034-1.22689.6589-.17871 1.3385-.27028 2.0212-.27236z"/><path d="m11.0001 20.9995c-1.60477 0-3.18595.3862-4.61001 1.126-1.42405.7398-2.64916 1.8114-3.57182 3.1244-.31755.4519-.94128.5608-1.39315.2432-.451865-.3175-.560759-.9412-.24322-1.3931 1.1072-1.5756 2.57733-2.8615 4.28619-3.7493 1.70887-.8877 3.60629-1.3512 5.53201-1.3512 1.9257 0 3.8231.4635 5.532 1.3512 1.7088.8878 3.179 2.1737 4.2862 3.7493.3175.4519.2086 1.0756-.2433 1.3931-.4518.3176-1.0756.2087-1.3931-.2432-.9227-1.313-2.1478-2.3846-3.5718-3.1244-1.4241-.7398-3.0053-1.126-4.61-1.126z"/><path d="m25.7982 22.1244c-1.4241-.7397-3.0054-1.1254-4.6101-1.1244-.5523.0003-1.0003-.4471-1.0006-.9994s.4471-1.0003.9994-1.0006c1.926-.0012 3.824.4617 5.5332 1.3496 1.7092.8878 3.1793 2.1744 4.2859 3.7509.3173.452.2081 1.0757-.244 1.393-.452.3173-1.0757.2081-1.393-.244-.9219-1.3134-2.1468-2.3854-3.5708-3.1251z"/></g></svg>